<svg width="967" height="81" viewBox="0 0 967 81" fill="none" xmlns="http://www.w3.org/2000/svg">
<path d="M47.499 0.155893H61.065V81H47.499V0.155893ZM43.4182 43.8316L40.7712 57.3975H14.1908V81H0.624897V57.3975V43.8316V0.155893H14.1908V43.8316H43.4182ZM103.355 81C92.9876 81 85.0098 78.2795 79.4217 72.8384C77.0688 70.4855 75.2674 67.7649 74.0174 64.6768C72.7674 61.5151 72.1424 58.1328 72.1424 54.5299V0.155893H85.7083V54.5299C85.7083 63.2062 91.5906 67.5444 103.355 67.5444C109.164 67.5444 113.575 66.4047 116.59 64.1253C119.678 61.8459 121.222 58.5739 121.222 54.3093V0.155893H134.788V54.3093C134.788 57.3975 134.237 60.5224 133.134 63.6841C132.031 66.8458 130.23 69.7134 127.73 72.2869C125.23 74.8604 121.994 76.956 118.024 78.5736C114.053 80.1912 109.164 81 103.355 81ZM226.658 40.6331C226.658 46.2212 225.592 51.4785 223.46 56.4049C221.327 61.2577 218.423 65.5223 214.747 69.1987C211.144 72.8016 206.879 75.6692 201.953 77.8015C197.1 79.9338 191.879 81 186.291 81C180.703 81 175.446 79.9338 170.52 77.8015C165.667 75.6692 161.402 72.8016 157.726 69.1987C154.049 65.5223 151.145 61.2577 149.013 56.4049C146.88 51.4785 145.814 46.2212 145.814 40.6331C145.814 35.045 146.88 29.7877 149.013 24.8613C151.145 19.9349 154.049 15.6703 157.726 12.0674C161.402 8.39104 165.667 5.48668 170.52 3.35436C175.446 1.22205 180.703 0.155893 186.291 0.155893C192.394 0.155893 198.056 1.40587 203.276 3.90582C208.497 6.40578 212.982 9.75131 216.732 13.9424L206.806 23.8687C204.379 20.854 201.401 18.4644 197.872 16.6997C194.343 14.935 190.482 14.0527 186.291 14.0527C182.615 14.0527 179.159 14.7512 175.924 16.1483C172.689 17.5453 169.858 19.457 167.431 21.8834C165.078 24.2363 163.203 27.0304 161.806 30.2656C160.409 33.5009 159.711 36.9567 159.711 40.6331C159.711 44.3095 160.409 47.7653 161.806 51.0005C163.203 54.2358 165.078 57.0666 167.431 59.493C169.858 61.8459 172.689 63.7209 175.924 65.1179C179.159 66.515 182.615 67.2135 186.291 67.2135C191.438 67.2135 196.107 65.89 200.298 63.243C204.489 60.596 207.688 57.1034 209.894 52.7652H191.144L189.049 40.6331H209.894H212.872H226.658ZM278.055 0.155893C283.643 0.155893 288.864 1.22205 293.717 3.35436C298.643 5.48668 302.908 8.39104 306.511 12.0674C310.187 15.6703 313.091 19.9349 315.224 24.8613C317.356 29.7877 318.422 35.045 318.422 40.6331C318.422 46.2212 317.356 51.4785 315.224 56.4049C313.091 61.2577 310.187 65.5223 306.511 69.1987C302.908 72.8016 298.643 75.6692 293.717 77.8015C288.864 79.9338 283.643 81 278.055 81C272.467 81 267.21 79.9338 262.283 77.8015C257.431 75.6692 253.166 72.8016 249.49 69.1987C245.813 65.5223 242.909 61.2577 240.776 56.4049C238.644 51.4785 237.578 46.2212 237.578 40.6331C237.578 35.045 238.644 29.7877 240.776 24.8613C242.909 19.9349 245.813 15.6703 249.49 12.0674C253.166 8.39104 257.431 5.48668 262.283 3.35436C267.21 1.22205 272.467 0.155893 278.055 0.155893ZM304.636 40.6331C304.636 36.9567 303.937 33.5009 302.54 30.2656C301.143 27.0304 299.231 24.2363 296.805 21.8834C294.452 19.457 291.658 17.5453 288.423 16.1483C285.187 14.7512 281.732 14.0527 278.055 14.0527C274.379 14.0527 270.923 14.7512 267.688 16.1483C264.452 17.5453 261.622 19.457 259.195 21.8834C256.842 24.2363 254.967 27.0304 253.57 30.2656C252.173 33.5009 251.475 36.9567 251.475 40.6331C251.475 44.3095 252.173 47.7653 253.57 51.0005C254.967 54.2358 256.842 57.0666 259.195 59.493C261.622 61.8459 264.452 63.7209 267.688 65.1179C270.923 66.515 274.379 67.2135 278.055 67.2135C281.732 67.2135 285.187 66.515 288.423 65.1179C291.658 63.7209 294.452 61.8459 296.805 59.493C299.231 57.0666 301.143 54.2358 302.54 51.0005C303.937 47.7653 304.636 44.3095 304.636 40.6331ZM284.562 40.6331C284.562 42.3978 283.901 43.9051 282.577 45.1551C281.327 46.405 279.82 47.03 278.055 47.03C276.29 47.03 274.746 46.405 273.423 45.1551C272.173 43.9051 271.548 42.3978 271.548 40.6331C271.548 38.7949 272.173 37.2508 273.423 36.0008C274.746 34.7508 276.29 34.1259 278.055 34.1259C279.82 34.1259 281.327 34.7508 282.577 36.0008C283.901 37.2508 284.562 38.7949 284.562 40.6331ZM384.601 0.155893H445.261V13.8321H398.167V43.8316H429.71L427.063 57.5078H398.167V81H384.601V57.5078V43.8316V13.8321V6.99401V0.155893ZM496.483 0.155893L536.85 81H456.005L496.483 0.155893ZM496.483 27.7289L476.079 68.6473H516.887L496.483 27.7289ZM610.526 30.2656C610.526 33.3538 610.084 36.2949 609.202 39.089C608.32 41.8831 607.07 44.4933 605.452 46.9197C603.908 49.2726 602.033 51.405 599.827 53.3167C597.621 55.1549 595.195 56.6622 592.548 57.8387L609.533 81H592.658L577.438 60.2651H566.74L563.982 46.6992H580.526C582.805 46.6992 584.938 46.2948 586.923 45.4859C588.908 44.6036 590.636 43.4272 592.107 41.9566C593.577 40.4125 594.754 38.6478 595.636 36.6626C596.518 34.6773 596.96 32.545 596.96 30.2656C596.96 27.9863 596.518 25.854 595.636 23.8687C594.754 21.8834 593.577 20.1555 592.107 18.685C590.636 17.2144 588.908 16.038 586.923 15.1556C584.938 14.2733 582.805 13.8321 580.526 13.8321H561.666V81H548.1V13.8321V6.99401V0.155893H580.526C584.644 0.155893 588.504 0.964702 592.107 2.58232C595.783 4.12641 598.982 6.25872 601.702 8.97926C604.423 11.6998 606.555 14.8983 608.099 18.5747C609.717 22.1775 610.526 26.0745 610.526 30.2656ZM684.089 30.2656C684.089 33.3538 683.648 36.2949 682.766 39.089C681.884 41.8831 680.634 44.4933 679.016 46.9197C677.472 49.2726 675.597 51.405 673.391 53.3167C671.185 55.1549 668.759 56.6622 666.112 57.8387L683.097 81H666.222L651.002 60.2651H640.304L637.546 46.6992H654.09C656.369 46.6992 658.502 46.2948 660.487 45.4859C662.472 44.6036 664.2 43.4272 665.671 41.9566C667.141 40.4125 668.318 38.6478 669.2 36.6626C670.082 34.6773 670.524 32.545 670.524 30.2656C670.524 27.9863 670.082 25.854 669.2 23.8687C668.318 21.8834 667.141 20.1555 665.671 18.685C664.2 17.2144 662.472 16.038 660.487 15.1556C658.502 14.2733 656.369 13.8321 654.09 13.8321H635.23V81H621.664V13.8321V6.99401V0.155893H654.09C658.208 0.155893 662.068 0.964702 665.671 2.58232C669.347 4.12641 672.546 6.25872 675.266 8.97926C677.987 11.6998 680.119 14.8983 681.663 18.5747C683.281 22.1775 684.089 26.0745 684.089 30.2656ZM726.441 81C716.073 81 708.096 78.2795 702.507 72.8384C700.154 70.4855 698.353 67.7649 697.103 64.6768C695.853 61.5151 695.228 58.1328 695.228 54.5299V0.155893H708.794V54.5299C708.794 63.2062 714.676 67.5444 726.441 67.5444C732.249 67.5444 736.661 66.4047 739.676 64.1253C742.764 61.8459 744.308 58.5739 744.308 54.3093V0.155893H757.874V54.3093C757.874 57.3975 757.323 60.5224 756.22 63.6841C755.117 66.8458 753.315 69.7134 750.815 72.2869C748.315 74.8604 745.08 76.956 741.11 78.5736C737.139 80.1912 732.249 81 726.441 81ZM849.744 40.6331C849.744 46.2212 848.678 51.4785 846.545 56.4049C844.413 61.2577 841.509 65.5223 837.832 69.1987C834.229 72.8016 829.965 75.6692 825.038 77.8015C820.186 79.9338 814.965 81 809.377 81C803.789 81 798.532 79.9338 793.605 77.8015C788.752 75.6692 784.488 72.8016 780.811 69.1987C777.135 65.5223 774.231 61.2577 772.098 56.4049C769.966 51.4785 768.9 46.2212 768.9 40.6331C768.9 35.045 769.966 29.7877 772.098 24.8613C774.231 19.9349 777.135 15.6703 780.811 12.0674C784.488 8.39104 788.752 5.48668 793.605 3.35436C798.532 1.22205 803.789 0.155893 809.377 0.155893C815.48 0.155893 821.141 1.40587 826.362 3.90582C831.582 6.40578 836.068 9.75131 839.818 13.9424L829.891 23.8687C827.465 20.854 824.487 18.4644 820.958 16.6997C817.428 14.935 813.568 14.0527 809.377 14.0527C805.701 14.0527 802.245 14.7512 799.01 16.1483C795.774 17.5453 792.943 19.457 790.517 21.8834C788.164 24.2363 786.289 27.0304 784.892 30.2656C783.495 33.5009 782.797 36.9567 782.797 40.6331C782.797 44.3095 783.495 47.7653 784.892 51.0005C786.289 54.2358 788.164 57.0666 790.517 59.493C792.943 61.8459 795.774 63.7209 799.01 65.1179C802.245 66.515 805.701 67.2135 809.377 67.2135C814.524 67.2135 819.193 65.89 823.384 63.243C827.575 60.596 830.774 57.1034 832.98 52.7652H814.23L812.134 40.6331H832.98H835.957H849.744ZM860.774 81V0.155893H874.45V81H860.774ZM925.803 0.155893L966.17 81H885.326L925.803 0.155893ZM925.803 27.7289L905.399 68.6473H946.207L925.803 27.7289Z" fill="#DDEAE9"/>
</svg>
